<svg width="265" height="178" viewBox="0 0 265 178" fill="none" xmlns="http://www.w3.org/2000/svg">
<path d="M67.1687 33.6331H228.737C247.745 33.6331 263.154 49.0424 263.154 68.0509V137.532H67.1687V33.6331Z" fill="#F1B6B3" stroke="#E38F8A" stroke-width="2"/>
<path d="M139.963 102.406C139.963 113.353 138.007 121.024 134.58 126.413C131.17 131.777 126.231 134.989 120.027 136.888C113.793 138.796 106.318 139.367 97.9063 139.449C93.7071 139.49 89.2955 139.41 84.7058 139.319C84.412 139.313 84.1175 139.307 83.8222 139.301C79.5099 139.215 75.0466 139.126 70.4815 139.126C65.9163 139.126 61.4531 139.215 57.1408 139.301C56.8455 139.307 56.551 139.313 56.2572 139.319C51.6675 139.41 47.2559 139.49 43.0567 139.449C34.6451 139.367 27.1703 138.796 20.9362 136.888C14.7316 134.989 9.79342 131.777 6.38261 126.413C2.9555 121.024 1 113.353 1 102.406C1 58.6281 32.2237 23.3621 70.4815 23.3621C108.739 23.3621 139.963 58.6281 139.963 102.406Z" fill="#F1B6B3" stroke="#E38F8A" stroke-width="2"/>
<path d="M125.379 97.9086C125.379 106.522 123.84 112.53 121.166 116.736C118.508 120.915 114.659 123.424 109.8 124.911C104.912 126.407 99.0398 126.857 92.4078 126.922C89.0985 126.955 85.621 126.891 81.9996 126.82C81.7676 126.815 81.535 126.81 81.3018 126.806C77.9001 126.738 74.377 126.668 70.7732 126.668C67.1695 126.668 63.6464 126.738 60.2447 126.806C60.0115 126.81 59.7789 126.815 59.5468 126.82C55.9255 126.891 52.448 126.955 49.1387 126.922C42.5067 126.857 36.6347 126.407 31.7465 124.911C26.8878 123.424 23.0389 120.915 20.3809 116.736C17.7065 112.53 16.1672 106.522 16.1672 97.9086C16.1672 63.4605 40.7309 35.7581 70.7732 35.7581C100.816 35.7581 125.379 63.4605 125.379 97.9086Z" fill="#F1D1D5" stroke="#E38F8A" stroke-width="2"/>
<rect x="160.541" y="1.53586" width="11.0021" height="93.2114" transform="rotate(10.9559 160.541 1.53586)" fill="#F8C254" stroke="#FFB522"/>
<path d="M170.754 3L198.758 8.06773L189.95 16.2926L195.004 28.8113L167 23.7435L170.754 3Z" fill="#B53C3C"/>
<path d="M179.652 139.032H199.194V177.346H179.652V139.032Z" fill="#F8C254" stroke="#FFAC05"/>
<rect x="178.152" y="138.532" width="6.02103" height="39.3138" fill="#FFB522"/>
<path opacity="0.9" d="M219.243 90.0322L232.802 102.794L230.877 104.604L217.318 91.8421L219.243 90.0322ZM200.858 90.0873L202.781 91.8972L189.317 104.569L187.394 102.764L200.858 90.0873Z" fill="black"/>
<path d="M210 97.272C207.96 97.272 205.784 96.504 204.288 94.968L187.288 79.096L189.192 77.304L206.192 93.304C208.368 95.352 211.768 95.352 213.944 93.304L230.944 77.304L232.848 79.096L215.712 95.096C214.216 96.504 212.04 97.272 210 97.272Z" fill="black"/>
<path d="M229.04 106.64H190.96C188.648 106.64 186.88 104.976 186.88 102.8V77.1999C186.88 75.0239 188.648 73.3599 190.96 73.3599H229.04C231.352 73.3599 233.12 75.0239 233.12 77.1999V102.8C233.12 104.976 231.352 106.64 229.04 106.64ZM190.96 75.9199C190.144 75.9199 189.6 76.4319 189.6 77.1999V102.8C189.6 103.568 190.144 104.08 190.96 104.08H229.04C229.856 104.08 230.4 103.568 230.4 102.8V77.1999C230.4 76.4319 229.856 75.9199 229.04 75.9199H190.96Z" fill="black"/>
</svg>
